<svg xmlns="http://www.w3.org/2000/svg">
  <symbol id="toggle" viewBox="0 0 24 24" fill="none" focusable="false"><path d="M16.85 8.34998C17.209 8.34998 17.5 8.64099 17.5 8.99998C17.5 9.35896 17.209 9.64998 16.85 9.64998L7.15 9.64997C6.79101 9.64997 6.5 9.35896 6.5 8.99998C6.5 8.64099 6.79101 8.34998 7.15 8.34998H16.85ZM16.85 11.35C17.209 11.35 17.5 11.641 17.5 12C17.5 12.359 17.209 12.65 16.85 12.65H7.15C6.79101 12.65 6.5 12.359 6.5 12C6.5 11.641 6.79101 11.35 7.15 11.35L16.85 11.35ZM17.5 15C17.5 14.641 17.209 14.35 16.85 14.35L7.15 14.35C6.79101 14.35 6.5 14.641 6.5 15C6.5 15.359 6.79101 15.65 7.15 15.65H16.85C17.209 15.65 17.5 15.359 17.5 15Z" fill="currentColor" /></symbol>
  <symbol id="sound" viewBox="0 0 24 24" fill="none" focusable="false"><path d="M5.75879 14.7747C4.83594 14.7747 4.37109 14.3098 4.37109 13.3186V10.7004C4.37109 9.70923 4.8291 9.23755 5.75879 9.23755H7.7207C7.78223 9.23755 7.83691 9.21704 7.88477 9.17603L10.9678 6.44165C11.3232 6.12036 11.5352 5.96997 11.8633 5.96997C12.3145 5.96997 12.6494 6.33228 12.6494 6.77661V17.2629C12.6494 17.7073 12.3145 18.0286 11.877 18.0286C11.5488 18.0286 11.2959 17.8918 10.9678 17.5979L7.88477 14.8362C7.83691 14.7952 7.78223 14.7747 7.7207 14.7747H5.75879ZM17.4893 16.6887C17.2363 16.5178 17.2021 16.1965 17.3936 15.9163C18.125 14.8499 18.5693 13.4485 18.5693 11.9924C18.5693 10.5364 18.1387 9.12134 17.3936 8.0686C17.1953 7.78833 17.2363 7.46704 17.4893 7.29614C17.7422 7.12524 18.0566 7.18677 18.2412 7.44653C19.123 8.63599 19.6289 10.304 19.6289 11.9924C19.6289 13.6809 19.1162 15.3352 18.2412 16.5383C18.0566 16.7981 17.7422 16.8596 17.4893 16.6887ZM5.80664 13.7766H7.99414C8.17188 13.7766 8.30859 13.8176 8.46582 13.9543L11.3779 16.5862C11.4189 16.6204 11.46 16.6409 11.4941 16.6409C11.542 16.6409 11.583 16.5999 11.583 16.5383V7.45337C11.583 7.39185 11.542 7.35767 11.4941 7.35767C11.4463 7.35767 11.4121 7.37817 11.3779 7.41235L8.46582 10.0579C8.30859 10.2014 8.17188 10.2356 7.99414 10.2356H5.80664C5.55371 10.2356 5.4375 10.3518 5.4375 10.6116V13.4075C5.4375 13.6604 5.55371 13.7766 5.80664 13.7766ZM14.96 14.9045C14.6797 14.7063 14.6455 14.3782 14.8506 14.0911C15.2402 13.5374 15.4727 12.7854 15.4727 11.9924C15.4727 11.1995 15.2471 10.4407 14.8506 9.8938C14.6387 9.61353 14.6797 9.27173 14.96 9.08032C15.1855 8.91626 15.5068 8.97095 15.6914 9.23755C16.2178 9.93481 16.5322 10.9465 16.5322 11.9924C16.5322 13.0383 16.2178 14.0569 15.6914 14.7473C15.5068 15.0139 15.1855 15.0618 14.96 14.9045Z" fill="currentColor" /></symbol>
  <symbol id="music" viewBox="0 0 24 24" fill="none" focusable="false"><path d="M16.17 8.469a.448.448 0 0 1-.376.45l-3.124.685c-.321.068-.39.143-.39.505v6.255c0 1.99-1.504 2.728-2.509 2.728-1.134 0-1.94-.732-1.94-1.777 0-1.033.642-1.73 2.009-2.017l1.087-.226c.3-.061.458-.28.424-.615l-.014-7.602c0-.382.24-.622.677-.717l3.513-.766c.349-.068.643.164.643.526v2.57Z" fill="currentColor"/></symbol>
  <symbol id="home" viewBox="0 0 24 24" fill="none" focusable="false"><path d="M7.354 19.177c-.978 0-1.545-.554-1.545-1.51v-6.522l-.89.752c-.143.116-.3.219-.491.219-.37 0-.588-.267-.588-.547 0-.158.068-.322.219-.445l7.123-5.981c.512-.43 1.141-.43 1.647 0l3.596 3.021V6.777c0-.301.198-.492.492-.492h.731c.301 0 .493.19.493.492v2.83l1.804 1.517c.144.123.212.26.212.465 0 .328-.26.527-.58.527-.192 0-.35-.103-.486-.22l-.95-.799v6.57c0 .956-.568 1.51-1.538 1.51h-9.25Zm6.617-5.68v4.58h2.4c.43 0 .669-.247.669-.69v-7.213l-4.792-4.02c-.15-.136-.335-.136-.485 0l-4.854 4.068v7.164c0 .444.24.69.677.69h2.44v-4.58c0-.314.205-.52.527-.52h2.898c.315 0 .52.206.52.52Z" fill="currentColor" /></symbol>
  <symbol id="star" viewBox="0 0 24 24" fill="none" focusable="false"><path d="M7.317 18.709c-.28-.212-.341-.56-.17-1.06l1.428-4.252-3.65-2.624c-.424-.301-.602-.616-.486-.958.11-.328.431-.492.957-.485l4.478.027 1.36-4.272c.164-.506.41-.759.76-.759.355 0 .6.253.765.759l1.36 4.272 4.478-.027c.526-.007.847.157.957.485.11.342-.062.657-.486.958l-3.65 2.625 1.429 4.251c.17.5.109.848-.171 1.06-.287.219-.636.143-1.06-.164l-3.623-2.66-3.616 2.66c-.424.307-.78.383-1.06.164Zm.985-1.354c.013.021.034.007.061-.013l3.288-2.509a.529.529 0 0 1 .69 0l3.289 2.509c.027.02.048.034.061.014.014-.014.007-.021 0-.062l-1.36-3.91c-.096-.267-.041-.479.198-.643l3.405-2.351c.027-.02.04-.035.034-.055-.007-.02-.02-.02-.062-.02l-4.135.075c-.28.006-.459-.11-.547-.39l-1.19-3.958c-.007-.041-.02-.055-.04-.055-.014 0-.028.014-.035.055L10.769 10c-.088.28-.266.396-.546.39l-4.136-.075c-.041 0-.055 0-.062.02-.006.02 0 .034.035.055l3.404 2.351c.24.164.294.376.198.643l-1.36 3.91c-.007.041-.014.048 0 .061Z" fill="currentColor" /></symbol>
  <symbol id="history" viewBox="0 0 24 24" fill="none" focusable="false"><path d="M4.356 10.678h.964c.629-3.199 3.486-5.653 6.85-5.653 3.807 0 6.972 3.158 6.972 6.973 0 3.807-3.165 6.972-6.972 6.972-2.304 0-4.341-1.175-5.64-2.919-.232-.3-.157-.676.116-.847.287-.171.609-.082.82.198a5.786 5.786 0 0 0 4.704 2.406 5.78 5.78 0 0 0 5.81-5.81 5.783 5.783 0 0 0-5.81-5.804 5.784 5.784 0 0 0-5.667 4.484h.991c.485 0 .608.335.349.711L6.31 13.57c-.218.309-.547.315-.772 0l-1.531-2.173c-.267-.383-.144-.718.348-.718Zm7.663-2.761c.356 0 .65.287.65.642v3.623l1.613 2.188c.24.335.219.724-.089.936-.335.226-.704.164-.977-.191l-1.655-2.188a.753.753 0 0 1-.184-.492V8.56c0-.355.287-.642.642-.642Z" fill="currentColor" /></symbol>
  <symbol id="limits" viewBox="0 0 24 24" fill="none" focusable="false"><path d="M6.701 18.493c-1.162 0-1.866-.806-1.866-1.852 0-.321.082-.65.267-.957l5.304-9.242A1.804 1.804 0 0 1 12 5.505c.629 0 1.237.314 1.593.937l5.304 9.242c.171.3.267.636.267.957 0 1.046-.704 1.852-1.866 1.852H6.7Zm.007-1.073h10.575c.472 0 .773-.37.773-.786a.957.957 0 0 0-.11-.43L12.648 6.96A.723.723 0 0 0 12 6.6a.734.734 0 0 0-.656.362l-5.298 9.235a.971.971 0 0 0-.103.438c0 .417.287.786.766.786Zm5.291-3.534c-.342 0-.533-.198-.54-.547l-.089-3.61c-.007-.348.253-.6.622-.6.362 0 .636.259.63.607l-.097 3.603c-.006.355-.198.547-.526.547Zm0 2.222c-.397 0-.738-.322-.738-.711 0-.397.335-.711.738-.711.403 0 .738.307.738.71 0 .397-.341.712-.738.712Z" fill="currentColor" /></symbol>
  <symbol id="help" viewBox="0 0 24 24" fill="none" focusable="false"><path d="M11.669 14.773c-.472 0-.711-.307-.711-.745v-.43c0-1.204.786-2.004 1.86-2.749.874-.615 1.483-1.162 1.483-2.14 0-1.189-1.046-1.94-2.38-1.94-1.1 0-1.961.492-2.31 1.79-.102.335-.335.54-.683.54-.417 0-.643-.273-.643-.663 0-.26.062-.574.205-.895.581-1.32 1.935-2.051 3.48-2.051 2.078 0 3.746 1.176 3.746 3.227 0 1.319-.745 2.235-1.921 3.028-1.094.752-1.415 1.128-1.429 2.03v.233c0 .437-.218.765-.697.765Zm0 3.74a.97.97 0 1 1 0-1.941.972.972 0 1 1 0 1.941Z" fill="currentColor" /></symbol>
  <symbol id="rules" viewBox="0 0 24 24" fill="none" focusable="false"><path d="M8.37 19.326c-1.416 0-2.12-.71-2.12-2.14V6.817c0-1.421.71-2.146 2.12-2.146h3.246c.766 0 1.197.116 1.716.65l3.767 3.834c.546.56.649.944.649 1.826v6.207c0 1.421-.704 2.14-2.12 2.14H8.37Zm.047-1.1h7.157c.711 0 1.074-.376 1.074-1.06v-6.139H12.75c-.854 0-1.285-.423-1.285-1.285V5.771H8.424c-.711 0-1.073.39-1.073 1.066v10.33c0 .683.362 1.059 1.066 1.059Zm4.457-8.23h3.562l-3.938-4.014v3.63c0 .274.103.383.376.383Zm1.64 2.918a.41.41 0 0 1 .418.417c0 .24-.178.424-.417.424H9.326a.419.419 0 0 1-.43-.424c0-.232.184-.417.43-.417h5.189Zm0 2.386c.24 0 .418.191.418.43 0 .233-.178.41-.417.41H9.326c-.246 0-.43-.177-.43-.41 0-.239.184-.43.43-.43h5.189Z" fill="currentColor" /></symbol>
  <symbol id="times" viewBox="0 0 24 24" fill="none" focusable="false"><path d="M7.00685 16.9942C6.73341 16.7207 6.74122 16.2676 7.00685 16.002L11.0147 11.9942L7.00685 7.99415C6.74122 7.72853 6.73341 7.26759 7.00685 7.00196C7.27247 6.72853 7.73341 6.73634 7.99903 7.00196L11.999 11.0098L16.0068 7.00196C16.2725 6.73634 16.7256 6.72853 16.9912 7.00196C17.2725 7.26759 17.2647 7.72853 16.9912 7.99415L12.9912 11.9942L16.9912 16.002C17.2647 16.2676 17.2725 16.7207 16.9912 16.9942C16.7256 17.2676 16.2725 17.2598 16.0068 16.9942L11.999 12.9863L7.99903 16.9942C7.73341 17.2598 7.27247 17.2676 7.00685 16.9942Z" fill="currentColor"/></symbol>
  <symbol id="fair" fill="none" focusable="false"><path d="M7.999 14.839a1.07 1.07 0 0 1-.472-.137c-3.855-2.112-5.202-3.076-5.202-5.523V4.086c0-.793.308-1.087.977-1.36.746-.308 3.261-1.217 4-1.45.218-.061.471-.116.697-.116.232 0 .485.048.704.116.731.246 3.254 1.142 3.999 1.45.67.28.977.567.977 1.36v5.093c0 2.447-1.292 3.506-5.202 5.523a1.17 1.17 0 0 1-.478.137Zm-.759-3.76c.26 0 .479-.13.629-.362l3.206-4.99c.096-.151.178-.322.178-.48 0-.355-.315-.594-.657-.594-.212 0-.403.123-.553.356L7.219 9.534 5.9 7.859c-.178-.219-.342-.3-.554-.3a.633.633 0 0 0-.628.635c0 .171.061.335.184.486l1.675 2.037c.198.253.403.362.663.362Z" fill="currentColor" /></symbol>
  <symbol id="animation" viewBox="0 0 24 24" fill="none" focusable="false"><path d="M4.95 17.2c-1.2 0-1.92-.73-1.92-1.96V6.76c0-1.22.72-1.94 1.92-1.94h14.1c1.2 0 1.94.72 1.94 1.92v8.48c0 1.2-.74 1.94-1.94 1.94h-4.74v1.4h.06c.32 0 .6.27.6.6 0 .34-.28.6-.6.6h-4.68a.6.6 0 0 1-.6-.6c0-.33.27-.6.6-.6h.06v-1.4H4.95ZM4.8 13.6h14.4c.22 0 .3-.07.3-.3v-7c0-.34-.2-.5-.5-.5H5c-.3 0-.5.16-.5.5v7c0 .23.1.3.3.3Z" fill="currentColor" /></symbol>

  <!-- <symbol id="multi-server" focusable="false" fill="none"><path fill="currentColor" d="M6.508 17.841c-1.326 0-1.993-.654-1.993-1.961V8.123c0-1.308.667-1.968 1.993-1.968H17.49c1.333 0 1.993.66 1.993 1.968v7.757c0 1.307-.66 1.961-1.993 1.961H6.508Zm-.97-9.661v1.58H18.46V8.18c0-.66-.355-1.003-.984-1.003H6.521c-.635 0-.984.343-.984 1.003Zm10.689 1.104c-.432.007-.807-.374-.807-.812 0-.444.375-.819.807-.819.438 0 .806.375.806.819a.83.83 0 0 1-.806.812ZM5.537 13.29h12.924v-2.571H5.537v2.57Zm10.69-.489c-.432.006-.807-.374-.807-.813 0-.444.375-.818.807-.818.438 0 .806.374.806.819a.83.83 0 0 1-.806.812ZM6.52 16.819h10.956c.628 0 .984-.336.984-.996v-1.575H5.537v1.575c0 .66.35.996.984.996Zm9.706-.501c-.432.006-.807-.375-.807-.813 0-.444.375-.819.807-.819.438 0 .806.375.806.82a.83.83 0 0 1-.806.812Z"/></symbol> -->
  <symbol id="user-circle" focusable="false"><g fill="currentColor"><path d="M10 0C4.477 0 0 4.477 0 10s4.477 10 10 10a10.047 10.047 0 0 0 1.726-.151l.105-.019A10 10 0 0 0 10 0zm-.803 19.298h-.024a9.245 9.245 0 0 1-.772-.102l-.043-.007c-.25-.045-.496-.1-.74-.165l-.06-.015a9.302 9.302 0 0 1-.706-.223l-.072-.025a9.156 9.156 0 0 1-.672-.279l-.082-.037a8.437 8.437 0 0 1-.635-.33l-.089-.05a9.451 9.451 0 0 1-.6-.383l-.089-.061a9.374 9.374 0 0 1-.563-.433L4 17.144v-2.81a3.671 3.671 0 0 1 3.667-3.667h4.666A3.671 3.671 0 0 1 16 14.333v2.811l-.044.037a9.06 9.06 0 0 1-.574.442l-.079.053a9.32 9.32 0 0 1-.609.39l-.079.044a9.014 9.014 0 0 1-1.396.65l-.067.023a9.37 9.37 0 0 1-.71.224l-.057.015a9.39 9.39 0 0 1-.741.165l-.043.006c-.255.045-.513.08-.772.103h-.024a9.345 9.345 0 0 1-1.608.002zm7.47-2.772v-2.193A4.338 4.338 0 0 0 12.333 10H7.667a4.338 4.338 0 0 0-4.334 4.333v2.193a9.333 9.333 0 1 1 13.334 0z"/><path d="M10 2.667a3.333 3.333 0 1 0 0 6.666 3.333 3.333 0 0 0 0-6.666zm0 6a2.667 2.667 0 1 1 0-5.334 2.667 2.667 0 0 1 0 5.334z"/></g></symbol>
  <symbol id="server" focusable="false"><g fill="currentColor" fill-rule="nonzero"><path d="M5.6 3.2069c-1.3232 0-2.4 1.0791-2.4 2.4052 0 1.326 1.0768 2.4051 2.4 2.4051S8 6.9382 8 5.6121c0-1.326-1.0768-2.4052-2.4-2.4052Zm0 3.7414c-.735 0-1.3333-.5992-1.3333-1.3362 0-.737.5984-1.3362 1.3333-1.3362.735 0 1.3333.5991 1.3333 1.3362 0 .737-.5984 1.3362-1.3333 1.3362Z"/><circle cx="26.6667" cy="4.8103" r="1"/><circle cx="24.5333" cy="4.8103" r="1"/><circle cx="27.7333" cy="6.4138" r="1"/><circle cx="25.6" cy="6.4138" r="1"/><circle cx="22.4" cy="4.8103" r="1"/><circle cx="23.4667" cy="6.4138" r="1"/><circle cx="20.2667" cy="4.8103" r="1"/><circle cx="21.3333" cy="6.4138" r="1"/><circle cx="18.1333" cy="4.8103" r="1"/><circle cx="19.2" cy="6.4138" r="1"/><path d="M32 8.7612V2.463C32 1.1048 30.8976 0 29.5424 0H2.4576C1.1024 0 0 1.1048 0 2.4629v6.2978c0 .7852.375 1.4779.9477 1.929C.375 11.1407 0 11.8334 0 12.618v6.2978c0 1.3586 1.1024 2.4634 2.4576 2.4634h13.009v4.3299c-1.0431.2132-1.8666 1.0385-2.0794 2.0839H.5333A.5338.5338 0 0 0 0 28.3276c0 .2956.239.5345.5333.5345h12.8539C13.6352 30.08 14.712 31 16 31s2.3648-.9198 2.6128-2.138h12.8539A.5338.5338 0 0 0 32 28.3277a.5338.5338 0 0 0-.5333-.5345H18.6128c-.2128-1.0454-1.0363-1.8707-2.0795-2.084v-4.3298h13.0091c1.3552 0 2.4576-1.1048 2.4576-2.4629v-6.2983c0-.7852-.375-1.4773-.9477-1.9284.5728-.4511.9477-1.1438.9477-1.9285ZM17.6 28.3276c0 .884-.7179 1.6034-1.6 1.6034-.8821 0-1.6-.7194-1.6-1.6034 0-.884.7179-1.6035 1.6-1.6035.8821 0 1.6.7195 1.6 1.6035ZM30.9333 12.618v6.2978c0 .7691-.624 1.3944-1.3909 1.3944H2.4576c-.767 0-1.391-.6253-1.391-1.3939v-6.2983c0-.7686.624-1.394 1.391-1.394h27.0843c.7674 0 1.3914.6254 1.3914 1.394ZM2.4576 10.155c-.767 0-1.391-.6253-1.391-1.3939V2.463c0-.7686.624-1.394 1.391-1.394h27.0843c.7674 0 1.3914.6254 1.3914 1.394v6.2978c0 .7691-.624 1.3945-1.3909 1.3945H2.4576Z"/><path d="M5.6 18.1724c1.3232 0 2.4-1.0791 2.4-2.4052 0-1.326-1.0768-2.4051-2.4-2.4051s-2.4 1.079-2.4 2.4051c0 1.326 1.0768 2.4052 2.4 2.4052Zm0-3.7414c.735 0 1.3333.5992 1.3333 1.3362 0 .737-.5984 1.3362-1.3333 1.3362-.735 0-1.3333-.5991-1.3333-1.3362 0-.737.5984-1.3362 1.3333-1.3362Z"/><circle cx="26.6667" cy="14.9655" r="1"/><circle cx="24.5333" cy="14.9655" r="1"/><circle cx="27.7333" cy="16.569" r="1"/><circle cx="25.6" cy="16.569" r="1"/><circle cx="22.4" cy="14.9655" r="1"/><circle cx="23.4667" cy="16.569" r="1"/><circle cx="20.2667" cy="14.9655" r="1"/><circle cx="21.3333" cy="16.569" r="1"/><circle cx="18.1333" cy="14.9655" r="1"/><circle cx="19.2" cy="16.569" r="1"/></g></symbol>
  <symbol id="hash" focusable="false"><g fill="currentColor" fill-rule="nonzero"><path d="M19.5003 13.8276H19v-.9655C19 10.729 17.2091 9 15 9c-2.2091 0-4 1.7291-4 3.862v.9656h-.5c-.276 0-.5.216-.5.4825v8.2072c0 .2665.2237.4826.4998.4827H19.5c.276 0 .5-.216.5-.4825V14.3103c0-.2665-.2237-.4826-.4997-.4827ZM12 12.862c0-1.5998 1.3431-2.8966 3-2.8966s3 1.2968 3 2.8966v.9655h-1v-.9655c0-1.0665-.8954-1.931-2-1.931s-2 .8645-2 1.931v.9655h-1v-.9655Zm4 0v.9655h-2v-.9655c0-.5333.4477-.9655 1-.9655s1 .4323 1 .9655Zm3 9.1724h-8V14.793h8v7.2414Z"/><path d="M16.3265 16.4546c-.366-.2942-.838-.4559-1.3265-.4546-1.1013-.003-1.9967.8062-2 1.8074-.0014.444.1764.8732.5 1.206v1.532c0 .251.2237.4545.4998.4546H16c.276 0 .5-.2034.5-.4543v-1.5323c.7294-.7502.6517-1.8958-.1735-2.5588Zm-.661 2.0354c-.1054.0862-.1655.209-.1655.3378v1.2631h-1v-1.263c0-.129-.0602-.2517-.1655-.3379-.2124-.1699-.3342-.4146-.3345-.6718 0-.5021.4477-.9091 1-.9091s1 .407 1 .909c-.0003.2573-.1221.502-.3345.6719Z"/><path d="M29.935 5.5a1.9961 1.9961 0 0 0-1.9349-1.4931 1.9974 1.9974 0 0 0-1.9284 1.4996h-2.0705a.4998.4998 0 0 0-.4998.4996v3.6555a18.9788 18.9788 0 0 1-1.4996-.6647v-5.061c1.0692-.276 1.7121-1.3666 1.4361-2.4358C23.1619.4308 22.0713-.2121 21.0021.064c-1.0692.276-1.7122 1.3666-1.4361 2.4359a1.9993 1.9993 0 0 0 1.436 1.436v4.5214a15.5747 15.5747 0 0 1-5.5711-5.2099.5196.5196 0 0 0-.8543 0 14.4765 14.4765 0 0 1-3.5717 3.8795v-3.191c1.0692-.276 1.7121-1.3666 1.436-2.4358C12.165.4308 11.0745-.2121 10.0053.064 8.936.34 8.293 1.4306 8.569 2.4998a1.9993 1.9993 0 0 0 1.436 1.4361v3.9044c-.7963.5269-1.6318.992-2.4992 1.3913V2.0074a.4998.4998 0 0 0-.4996-.4998H3.9359C3.6598.4383 2.5693-.2046 1.5.0714S-.2121 1.4381.064 2.5073C.34 3.5765 1.4306 4.2195 2.4998 3.9434a1.9993 1.9993 0 0 0 1.436-1.4361h2.5704v7.1543a18.6317 18.6317 0 0 1-2.5218.7935.5015.5015 0 0 0-.167.074l-.0926.0635a.5.5 0 0 0-.2177.4124v1.4167c.01 7.5496 4.421 14.4002 11.2898 17.5334a.4995.4995 0 0 0 .414 0c6.8686-3.1332 11.2797-9.9838 11.2898-17.5334V11.005a.5.5 0 0 0-.2177-.4125l-.0928-.0635a.5015.5015 0 0 0-.167-.074c-.5138-.1217-1.0214-.2685-1.522-.4336V6.5062h1.5706c.2779 1.067 1.368 1.7065 2.435 1.4287 1.0666-.278 1.7061-1.368 1.4283-2.435ZM2.0075 3.0071c-.5521 0-.9997-.4476-.9997-.9998 0-.5521.4476-.9997.9997-.9997.5522 0 .9997.4476.9997.9997-.0006.552-.4478.9991-.9997.9998Zm18.4948-.9998c0-.5521.4476-.9997.9997-.9997.5522 0 .9998.4476.9998.9997 0 .5522-.4476.9998-.9998.9998-.5519-.0007-.999-.4479-.9997-.9998Zm-10.9969 0c0-.5521.4476-.9997.9997-.9997.5522 0 .9998.4476.9998.9997 0 .5522-.4476.9998-.9998.9998-.5519-.0007-.999-.4479-.9997-.9998Zm15.9955 9.3489v1.0654c-.0093 7.0754-4.0969 13.5114-10.497 16.5279C8.6036 25.933 4.516 19.497 4.5068 12.4216v-1.0653c4.3205-1.0962 8.252-3.703 10.497-6.9338 2.2449 3.231 6.1764 5.8376 10.497 6.9338Zm2.4993-4.3502c-.5521 0-.9997-.4476-.9997-.9997 0-.5522.4476-.9998.9997-.9998.5522 0 .9997.4476.9997.9998-.0006.5519-.4478.999-.9997.9997Z"/></g></symbol>
  <symbol id="client" focusable="false"><g fill="currentColor" fill-rule="nonzero"><path d="M31.9985 22.6563c-.0003-.0048-.0003-.0095-.0007-.0142a.4726.4726 0 0 0-.0082-.0554c-.0004-.0018-.001-.0036-.0013-.0054a.4667.4667 0 0 0-.0137-.0487c-.0014-.0042-.003-.0084-.0045-.0125a.462.462 0 0 0-.0178-.0421c-.0011-.0024-.0019-.0049-.003-.0073l-2.507-5.0202V.934c0-.508-.4071-.9212-.9075-.9212H3.4651c-.5004 0-.9075.4132-.9075.9212v16.5164l-2.507 5.0202c-.0011.0024-.0018.005-.003.0073a.4873.4873 0 0 0-.0177.042c-.0016.0042-.0032.0084-.0046.0127a.4896.4896 0 0 0-.0136.0488c-.0004.0017-.001.0034-.0013.0051a.4756.4756 0 0 0-.0082.0555c-.0005.0047-.0005.0095-.0007.0142-.0006.0099-.0015.0196-.0015.0297v1.2072c0 .6033.4834 1.0941 1.0777 1.0941h29.8445c.5944 0 1.0778-.4908 1.0778-1.0941v-1.2072c0-.01-.0009-.0198-.0015-.0296ZM3.4952.9647h25.0096v16.1236H3.4952V.9647ZM3.3143 18.04h25.3713L30.768 22.21H20.4692l-.5169-1.9029c-.1052-.3873-.4551-.6579-.851-.6579h-6.2028c-.3958 0-.7458.2706-.851.6579l-.5169 1.9029H1.232L3.3143 18.04Zm16.1824 4.17h-6.9935l.4371-1.609h6.1194l.437 1.609Zm11.5658 1.683a.1415.1415 0 0 1-.1403.1424H1.0778a.1415.1415 0 0 1-.1403-.1424v-.7313h30.125v.7313Z"/><path d="M27.036 9.8195c-.2589 0-.4687.213-.4687.476v4.8258H5.4327v-4.8259c0-.2628-.2098-.4759-.4688-.4759-.2589 0-.4687.213-.4687.476v5.0313c0 .4115.3297.7462.735.7462h21.5396c.4053 0 .735-.3347.735-.7462v-5.0314c0-.2627-.2098-.4759-.4687-.4759ZM26.7697 1.9799H5.2303c-.4054 0-.7351.3347-.7351.7462v5.0314c0 .2629.2098.4759.4687.4759.259 0 .4688-.213.4688-.476V2.9318h21.1346v4.8258c0 .2629.2098.4759.4688.4759.2589 0 .4687-.213.4687-.476V2.7262c0-.4116-.3297-.7462-.735-.7462Z"/></g></symbol>
</svg>