<svg xmlns="http://www.w3.org/2000/svg">
  <symbol id="toggle" focusable="false"><path d="M0 12h18v-2H0v2Zm0-5h18V5H0v2Zm0-7v2h18V0H0Z" fill="currentColor" fill-rule="nonzero"/></symbol>
  <symbol id="home" focusable="false"><g fill="currentColor"><path d="M15.39 5.49 8.031.102a.403.403 0 0 0-.476 0L.195 5.49a.403.403 0 1 0 .477.651L7.792.928l7.122 5.213a.401.401 0 0 0 .564-.087.403.403 0 0 0-.088-.564z"/><path d="M13.44 6.233a.403.403 0 0 0-.403.403v6.42H9.81V9.553a2.02 2.02 0 0 0-2.017-2.017 2.02 2.02 0 0 0-2.017 2.017v3.505H2.549V6.636a.403.403 0 0 0-.807 0v6.824c0 .223.18.404.403.404H6.18a.403.403 0 0 0 .404-.404V9.552c0-.667.543-1.21 1.21-1.21.667 0 1.21.543 1.21 1.21v3.908a.403.403 0 0 0 .403.403h4.034c.223 0 .404-.18.404-.403V6.636a.403.403 0 0 0-.404-.403z"/></g></symbol>
  <symbol id="sound" focusable="false"><path d="M9.836.137A1.031 1.031 0 0 0 8.74.183L4.127 4.086H.507a.34.34 0 0 0-.34.34v6.468a.339.339 0 0 0 .34.34l3.612-.001 4.61 4.235c.017.016.036.03.055.04a1.04 1.04 0 0 0 1.052.016c.34-.192.543-.543.543-.938V1.076c0-.396-.203-.747-.543-.94zm-.138 14.449a.39.39 0 0 1-.197.345.357.357 0 0 1-.34.009l-4.569-4.197V9.192a.34.34 0 1 0-.68 0v1.36l-3.065.002V4.766h3.064v1.362a.34.34 0 1 0 .681 0V4.584L9.155.724a.356.356 0 0 1 .346.006.39.39 0 0 1 .197.345v13.51zm1.797-11.338a.34.34 0 0 0-.189.654 3.931 3.931 0 0 1 2.827 3.758 3.931 3.931 0 0 1-2.827 3.759.34.34 0 0 0 .189.654 4.616 4.616 0 0 0 3.319-4.413 4.616 4.616 0 0 0-3.32-4.412z" fill="currentColor"/></symbol>
  <symbol id="music" focusable="false"><path d="M15.864 3.87V.498a.502.502 0 0 0-.202-.402.506.506 0 0 0-.446-.073L5.168 3.215a.498.498 0 0 0-.346.475v9.835c-.527-.365-1.2-.564-1.907-.564-.748 0-1.458.225-2 .63-.581.438-.902 1.03-.902 1.675s.32 1.237.902 1.676c.542.405 1.248.63 2 .63.75 0 1.458-.225 1.999-.63.582-.439.902-1.031.902-1.676V7.431l9.054-2.88v5.767c-.526-.365-1.2-.564-1.907-.564-.748 0-1.458.225-2 .63-.581.438-.902 1.03-.902 1.675s.32 1.237.902 1.675c.542.406 1.249.63 2 .63.75 0 1.458-.224 2-.63.58-.438.901-1.03.901-1.675V3.87zM2.914 16.577c-1.034 0-1.907-.6-1.907-1.31 0-.711.873-1.312 1.908-1.312 1.034 0 1.907.6 1.907 1.311 0 .715-.873 1.311-1.907 1.311zM5.817 6.385V4.051l9.054-2.876V3.51L5.816 6.385zm7.15 6.985c-1.034 0-1.907-.6-1.907-1.31 0-.711.873-1.312 1.907-1.312 1.035 0 1.908.6 1.908 1.311-.004.71-.877 1.311-1.908 1.311z" fill="currentColor"/></symbol>
  <symbol id="animation" focusable="false"><path d="M17.337 13.35c-.46-.654-1.362-1.38-2.608-2.1-1.226-.708-2.681-1.307-3.784-1.568a2.161 2.161 0 0 0-.85-1.473c.324-1.085.534-2.645.534-4.061 0-1.44-.178-2.584-.515-3.309A1.454 1.454 0 0 0 8.8 0c-.562 0-1.078.33-1.314.84-.337.724-.515 1.868-.515 3.308 0 1.416.21 2.976.534 4.061-.46.346-.779.872-.85 1.473-1.103.261-2.558.86-3.784 1.568-1.246.72-2.148 1.446-2.608 2.1a1.454 1.454 0 0 0-.07 1.558 1.454 1.454 0 0 0 1.384.718c.796-.071 1.876-.49 3.123-1.209 1.226-.708 2.472-1.669 3.25-2.493a2.148 2.148 0 0 0 1.7 0c.778.824 2.024 1.785 3.25 2.493 1.247.72 2.327 1.138 3.123 1.209a1.454 1.454 0 0 0 1.384-.718 1.454 1.454 0 0 0-.07-1.558zM8.06 4.148c0-1.705.26-2.518.413-2.85a.361.361 0 0 1 .327-.21c.14 0 .268.083.327.21.154.332.413 1.145.413 2.85 0 1.26-.183 2.674-.459 3.648a2.169 2.169 0 0 0-.562 0c-.276-.974-.459-2.389-.459-3.648zm-3.905 9.326c-1.477.853-2.31 1.035-2.675 1.068a.361.361 0 0 1-.326-.566c.21-.3.785-.93 2.261-1.783 1.09-.63 2.407-1.179 3.39-1.427.072.175.167.338.281.486-.706.727-1.84 1.592-2.93 2.222zm3.573-3.536a1.073 1.073 0 0 1 2.144 0 1.073 1.073 0 0 1-2.144 0zm8.736 4.425a.362.362 0 0 1-.344.179c-.365-.033-1.198-.215-2.675-1.068-1.09-.63-2.225-1.495-2.931-2.222a2.16 2.16 0 0 0 .282-.486c.982.248 2.298.797 3.389 1.427 1.476.853 2.05 1.483 2.261 1.783.08.114.088.266.018.387z" fill="currentColor"/></symbol>
  <symbol id="user-circle" focusable="false"><g fill="currentColor"><path d="M10 0C4.477 0 0 4.477 0 10s4.477 10 10 10a10.047 10.047 0 0 0 1.726-.151l.105-.019A10 10 0 0 0 10 0zm-.803 19.298h-.024a9.245 9.245 0 0 1-.772-.102l-.043-.007c-.25-.045-.496-.1-.74-.165l-.06-.015a9.302 9.302 0 0 1-.706-.223l-.072-.025a9.156 9.156 0 0 1-.672-.279l-.082-.037a8.437 8.437 0 0 1-.635-.33l-.089-.05a9.451 9.451 0 0 1-.6-.383l-.089-.061a9.374 9.374 0 0 1-.563-.433L4 17.144v-2.81a3.671 3.671 0 0 1 3.667-3.667h4.666A3.671 3.671 0 0 1 16 14.333v2.811l-.044.037a9.06 9.06 0 0 1-.574.442l-.079.053a9.32 9.32 0 0 1-.609.39l-.079.044a9.014 9.014 0 0 1-1.396.65l-.067.023a9.37 9.37 0 0 1-.71.224l-.057.015a9.39 9.39 0 0 1-.741.165l-.043.006c-.255.045-.513.08-.772.103h-.024a9.345 9.345 0 0 1-1.608.002zm7.47-2.772v-2.193A4.338 4.338 0 0 0 12.333 10H7.667a4.338 4.338 0 0 0-4.334 4.333v2.193a9.333 9.333 0 1 1 13.334 0z"/><path d="M10 2.667a3.333 3.333 0 1 0 0 6.666 3.333 3.333 0 0 0 0-6.666zm0 6a2.667 2.667 0 1 1 0-5.334 2.667 2.667 0 0 1 0 5.334z"/></g></symbol>
  <symbol id="star" focusable="false"><path fill="currentColor" d="M16 5.813c0-.233-.18-.378-.539-.435l-4.826-.69L8.47.388C8.35.128 8.192 0 8.001 0c-.193 0-.35.13-.472.387L5.365 4.688l-4.827.69C.18 5.435 0 5.58 0 5.813c0 .132.08.283.24.454l3.5 3.345-.826 4.726a1.51 1.51 0 0 0-.02.19.55.55 0 0 0 .101.335c.068.091.168.137.303.137a.826.826 0 0 0 .385-.113L8 12.656l4.317 2.23a.788.788 0 0 0 .385.114c.263 0 .394-.157.394-.472 0-.082-.003-.145-.01-.19l-.826-4.725 3.49-3.346c.167-.164.25-.316.25-.454zm-5.067 3.374.692 3.98L8 11.284l-3.635 1.881.702-3.979L2.125 6.38l4.058-.586L8 2.184l1.817 3.61 4.058.586-2.942 2.807z"/></symbol>
  <symbol id="history" focusable="false"><path fill="currentColor" d="M7.993.669c-2.45 0-4.62 1.33-5.74 3.36l-1.61-1.61v4.55h4.55l-1.96-1.96c.91-1.75 2.66-2.94 4.76-2.94 2.87 0 5.25 2.38 5.25 5.25s-2.38 5.25-5.25 5.25c-2.31 0-4.2-1.47-4.97-3.5h-1.47c.77 2.8 3.36 4.9 6.44 4.9 3.71 0 6.65-3.01 6.65-6.65 0-3.64-3.01-6.65-6.65-6.65zm-1.05 3.5v3.57l3.29 1.96.56-.91-2.8-1.68v-2.94h-1.05z"/></symbol>
  <symbol id="limits" focusable="false"><g fill="currentCOlor"><path d="M14.796.027H1.204C.54.027 0 .567 0 1.23v7.226C0 9.12.54 9.66 1.204 9.66h13.592C15.46 9.66 16 9.12 16 8.456V1.23c0-.664-.54-1.204-1.204-1.204zm.172 8.43a.174.174 0 0 1-.172.172H1.204a.174.174 0 0 1-.172-.172V1.23c0-.093.08-.172.172-.172h13.592c.093 0 .172.079.172.172v7.226z"/><path d="M1.824.37v.775a.68.68 0 0 1-.689.688H.38v1.032h.756c.95 0 1.72-.772 1.72-1.72V.37H1.825zm13.058 1.463a.68.68 0 0 1-.688-.688V.37H13.16v.774c0 .948.772 1.72 1.72 1.72h.775V1.833h-.774zM1.153 6.822H.379v1.032h.774a.68.68 0 0 1 .688.689v.774h1.032v-.774c0-.949-.772-1.72-1.72-1.72zm13.729 0c-.949 0-1.72.772-1.72 1.72v.775h1.032v-.774a.68.68 0 0 1 .688-.688h.774V6.822h-.774zm-4.745-4.029a2.88 2.88 0 0 0-2.051-.848 2.88 2.88 0 0 0-2.05.848 2.88 2.88 0 0 0-.849 2.05c0 .777.301 1.505.848 2.052a2.88 2.88 0 0 0 2.051.848 2.88 2.88 0 0 0 2.05-.848 2.88 2.88 0 0 0 .85-2.051 2.88 2.88 0 0 0-.85-2.051zm-.73 3.372a1.856 1.856 0 0 1-1.321.546c-.5 0-.97-.194-1.321-.546a1.855 1.855 0 0 1-.546-1.321c0-.5.194-.97.546-1.321a1.855 1.855 0 0 1 1.321-.546c.5 0 .97.194 1.321.546.352.352.546.82.546 1.32 0 .5-.194.97-.546 1.322z"/></g></symbol>
  <symbol id="help" focusable="false" fill="none"><path d="M10 0a10 10 0 1 1 0 20 10 10 0 0 1 0-20Zm0 14a1 1 0 1 0 0 2 1 1 0 0 0 0-2Zm0-9.5a3.62 3.62 0 0 0-3.63 3.63 1 1 0 0 0 2 0 1.63 1.63 0 1 1 2.24 1.5C9.93 9.9 9 10.6 9 11.75V12a1 1 0 1 0 2 0c0-.24.05-.37.26-.47l.09-.04A3.63 3.63 0 0 0 10 4.5Z" fill="currentColor"/><path d="M10 4.5a3.62 3.62 0 0 0-3.63 3.63 1 1 0 0 0 2 0 1.63 1.63 0 1 1 2.24 1.5C9.93 9.9 9 10.6 9 11.75V12a1 1 0 1 0 2 0c0-.24.05-.37.26-.47l.09-.04A3.63 3.63 0 0 0 10 4.5ZM10 14a1 1 0 1 0 0 2 1 1 0 0 0 0-2Z" fill="transparent"/></symbol>
  <symbol id="rules" focusable="false"><g fill="currentColor"><path d="M4.1.02a1.83 1.83 0 0 0-1.826 1.83l-.067 9.48.996.007.067-9.483c0-.454.372-.824.83-.824h10.008V.021H4.1z"/><path d="M14.108.02c-1.043 0-1.892.86-1.892 1.917v10.639c0 .769-.618 1.395-1.378 1.395-.76 0-1.377-.626-1.377-1.395v-1.227a.501.501 0 0 0-.498-.504H.498a.501.501 0 0 0-.498.504v1.227c0 1.325 1.065 2.403 2.373 2.403v-1.008c-.76 0-1.377-.626-1.377-1.395v-.723h7.469v.723c0 1.325 1.064 2.403 2.373 2.403 1.309 0 2.374-1.078 2.374-2.403V4.693h2.29A.501.501 0 0 0 16 4.19V1.937C16 .88 15.151.02 14.108.02zm.896 3.665h-1.792V1.937c0-.5.402-.908.896-.908s.896.407.896.908v1.748z"/><path d="M2.274 13.971h8.448v1.008H2.274zM7.402 2.828H4.83a.501.501 0 0 0-.498.504c0 .278.223.504.498.504h2.572a.501.501 0 0 0 .498-.504.501.501 0 0 0-.498-.504zm2.988 2.016H4.83a.501.501 0 0 0-.498.505c0 .278.223.504.498.504h5.56a.501.501 0 0 0 .498-.504.501.501 0 0 0-.498-.505zm0 2.017H4.83a.501.501 0 0 0-.498.505c0 .278.223.504.498.504h5.56a.501.501 0 0 0 .498-.504.501.501 0 0 0-.498-.505zm0 2.017H4.83a.501.501 0 0 0-.498.504c0 .279.223.505.498.505h5.56a.501.501 0 0 0 .498-.505.501.501 0 0 0-.498-.504z"/></g></symbol>
  <symbol id="fair" focusable="false"><g fill="currentColor"><path d="M5.85 8.935 3.894 7.008l-.834.906 2.86 2.814 4.358-5.016-.9-.835z"/><path d="M11.473 2.037C10.007 1.766 8.657.937 7.983.47A2.585 2.585 0 0 0 6.5 0c-.529 0-1.041.162-1.482.469-.674.469-2.025 1.297-3.491 1.568-.869.161-1.499.938-1.499 1.847v3.772c0 1.246.337 2.461 1.003 3.61.52.9 1.241 1.76 2.143 2.556 1.516 1.338 3.017 2.036 3.08 2.065L6.5 16l.246-.113c.063-.03 1.564-.727 3.08-2.065.902-.796 1.623-1.656 2.143-2.555.666-1.15 1.003-2.365 1.003-3.61V3.883c0-.91-.63-1.686-1.499-1.847zm.29 5.62c0 1.857-.909 3.605-2.7 5.194A13.388 13.388 0 0 1 6.5 14.62c-1.07-.562-5.262-3.017-5.262-6.965V3.884c0-.303.211-.562.502-.616 1.685-.312 3.2-1.238 3.953-1.762a1.407 1.407 0 0 1 1.614 0c.753.524 2.268 1.45 3.953 1.762a.622.622 0 0 1 .502.616v3.772z"/></g></symbol>
  <symbol id="multi-server" focusable="false" fill="none"><path fill="currentColor" d="M6.508 17.841c-1.326 0-1.993-.654-1.993-1.961V8.123c0-1.308.667-1.968 1.993-1.968H17.49c1.333 0 1.993.66 1.993 1.968v7.757c0 1.307-.66 1.961-1.993 1.961H6.508Zm-.97-9.661v1.58H18.46V8.18c0-.66-.355-1.003-.984-1.003H6.521c-.635 0-.984.343-.984 1.003Zm10.689 1.104c-.432.007-.807-.374-.807-.812 0-.444.375-.819.807-.819.438 0 .806.375.806.819a.83.83 0 0 1-.806.812ZM5.537 13.29h12.924v-2.571H5.537v2.57Zm10.69-.489c-.432.006-.807-.374-.807-.813 0-.444.375-.818.807-.818.438 0 .806.374.806.819a.83.83 0 0 1-.806.812ZM6.52 16.819h10.956c.628 0 .984-.336.984-.996v-1.575H5.537v1.575c0 .66.35.996.984.996Zm9.706-.501c-.432.006-.807-.375-.807-.813 0-.444.375-.819.807-.819.438 0 .806.375.806.82a.83.83 0 0 1-.806.812Z"/></symbol>
  <symbol id="times" focusable="false" viewBox="0 0 371.23 371.23"><polygon points="371.23,21.213 350.018,0 185.615,164.402 21.213,0 0,21.213 164.402,185.615 0,350.018 21.213,371.23 185.615,206.828 350.018,371.23 371.23,350.018 206.828,185.615" fill="currentColor"/></symbol>
  <symbol id="fairness" focusable="false"><defs><linearGradient x1="9.9656%" y1="0%" x2="97.7428%" y2="0%" id="a"><stop stop-color="#57B314" offset="0%"/><stop stop-color="#1E9F04" offset="100%"/></linearGradient></defs><g transform="translate(-194 -17)" fill="url(#a)" fill-rule="nonzero"><path d="M215.7627 21.4809c-3.5703-.9783-7.1616-2.5016-10.3856-4.405a.5456.5456 0 0 0-.555 0c-3.317 1.9581-6.7143 3.399-10.386 4.405a.5458.5458 0 0 0-.4016.5265v5.5773c0 5.7435 2.6496 9.5453 4.8725 11.7231 2.393 2.3449 5.1805 3.6416 6.1926 3.6416 1.012 0 3.7995-1.2967 6.1925-3.6416 2.2227-2.1778 4.8722-5.9795 4.8722-11.723v-5.5775a.5458.5458 0 0 0-.4016-.5264Zm-.69 6.1038c0 5.3643-2.4714 8.9119-4.5447 10.9433-2.3532 2.3058-4.8693 3.3296-5.4284 3.3296-.5592 0-3.0754-1.0238-5.4287-3.3296-2.0732-2.0315-4.5446-5.579-4.5446-10.9433v-5.163c3.5111-.997 6.781-2.3882 9.9734-4.2433 3.1126 1.8059 6.5456 3.2663 9.973 4.243v5.1633Z"/><path d="M200.2612 22.3606a.5458.5458 0 0 0-.708-.3078 44.4103 44.4103 0 0 1-2.9748 1.0512.546.546 0 0 0-.3825.5208v2.108a.5459.5459 0 0 0 1.0917 0v-1.709a45.5032 45.5032 0 0 0 2.6658-.9553.5457.5457 0 0 0 .3078-.7079ZM201.298 22.4642a.546.546 0 0 0 .219-.046l.01-.0043a.5447.5447 0 0 0 .2795-.7185c-.121-.2762-.4444-.4011-.7203-.2802l-.0088.0038a.5446.5446 0 0 0-.2804.7181.5463.5463 0 0 0 .501.327ZM211.603 34.601a.546.546 0 0 0-.7555.1585c-.4498.6884-.9775 1.3477-1.5687 1.9593a13.9425 13.9425 0 0 1-1.5657 1.393.546.546 0 0 0 .662.8681 15.0457 15.0457 0 0 0 1.6885-1.5023c.6392-.661 1.2104-1.3747 1.6978-2.121a.5458.5458 0 0 0-.1583-.7555ZM206.4454 38.9679l-.0313.0184a.5459.5459 0 0 0 .5469.9447l.0361-.0212a.5458.5458 0 1 0-.5517-.942ZM201.3788 28.8606a1.763 1.763 0 0 0-1.255-.5197 1.764 1.764 0 0 0-1.2552.5197c-.692.6921-.692 1.8183 0 2.5104l3.2232 3.223c.3352.3352.781.5197 1.255.5197.4742 0 .92-.1845 1.2552-.5198l6.7286-6.7286c.692-.6923.692-1.8183 0-2.5102a1.7633 1.7633 0 0 0-1.2552-.5197c-.4741 0-.9199.1846-1.2551.5197l-5.4735 5.4735-1.968-1.968Zm8.2134-2.7335c.129-.129.3007-.2.4833-.2a.679.679 0 0 1 .4832.2c.2663.2664.2663.6999-.0001.9663l-6.7285 6.7286a.6789.6789 0 0 1-.4832.2.679.679 0 0 1-.4833-.2l-3.223-3.223c-.2665-.2664-.2665-.7-.0002-.9663.129-.129.3007-.2.4833-.2.1826 0 .3542.071.4832.1999l2.354 2.354a.5461.5461 0 0 0 .7718 0l5.8595-5.8595Z"/></g></symbol>
  <symbol id="server" focusable="false"><g fill="currentColor" fill-rule="nonzero"><path d="M5.6 3.2069c-1.3232 0-2.4 1.0791-2.4 2.4052 0 1.326 1.0768 2.4051 2.4 2.4051S8 6.9382 8 5.6121c0-1.326-1.0768-2.4052-2.4-2.4052Zm0 3.7414c-.735 0-1.3333-.5992-1.3333-1.3362 0-.737.5984-1.3362 1.3333-1.3362.735 0 1.3333.5991 1.3333 1.3362 0 .737-.5984 1.3362-1.3333 1.3362Z"/><circle cx="26.6667" cy="4.8103" r="1"/><circle cx="24.5333" cy="4.8103" r="1"/><circle cx="27.7333" cy="6.4138" r="1"/><circle cx="25.6" cy="6.4138" r="1"/><circle cx="22.4" cy="4.8103" r="1"/><circle cx="23.4667" cy="6.4138" r="1"/><circle cx="20.2667" cy="4.8103" r="1"/><circle cx="21.3333" cy="6.4138" r="1"/><circle cx="18.1333" cy="4.8103" r="1"/><circle cx="19.2" cy="6.4138" r="1"/><path d="M32 8.7612V2.463C32 1.1048 30.8976 0 29.5424 0H2.4576C1.1024 0 0 1.1048 0 2.4629v6.2978c0 .7852.375 1.4779.9477 1.929C.375 11.1407 0 11.8334 0 12.618v6.2978c0 1.3586 1.1024 2.4634 2.4576 2.4634h13.009v4.3299c-1.0431.2132-1.8666 1.0385-2.0794 2.0839H.5333A.5338.5338 0 0 0 0 28.3276c0 .2956.239.5345.5333.5345h12.8539C13.6352 30.08 14.712 31 16 31s2.3648-.9198 2.6128-2.138h12.8539A.5338.5338 0 0 0 32 28.3277a.5338.5338 0 0 0-.5333-.5345H18.6128c-.2128-1.0454-1.0363-1.8707-2.0795-2.084v-4.3298h13.0091c1.3552 0 2.4576-1.1048 2.4576-2.4629v-6.2983c0-.7852-.375-1.4773-.9477-1.9284.5728-.4511.9477-1.1438.9477-1.9285ZM17.6 28.3276c0 .884-.7179 1.6034-1.6 1.6034-.8821 0-1.6-.7194-1.6-1.6034 0-.884.7179-1.6035 1.6-1.6035.8821 0 1.6.7195 1.6 1.6035ZM30.9333 12.618v6.2978c0 .7691-.624 1.3944-1.3909 1.3944H2.4576c-.767 0-1.391-.6253-1.391-1.3939v-6.2983c0-.7686.624-1.394 1.391-1.394h27.0843c.7674 0 1.3914.6254 1.3914 1.394ZM2.4576 10.155c-.767 0-1.391-.6253-1.391-1.3939V2.463c0-.7686.624-1.394 1.391-1.394h27.0843c.7674 0 1.3914.6254 1.3914 1.394v6.2978c0 .7691-.624 1.3945-1.3909 1.3945H2.4576Z"/><path d="M5.6 18.1724c1.3232 0 2.4-1.0791 2.4-2.4052 0-1.326-1.0768-2.4051-2.4-2.4051s-2.4 1.079-2.4 2.4051c0 1.326 1.0768 2.4052 2.4 2.4052Zm0-3.7414c.735 0 1.3333.5992 1.3333 1.3362 0 .737-.5984 1.3362-1.3333 1.3362-.735 0-1.3333-.5991-1.3333-1.3362 0-.737.5984-1.3362 1.3333-1.3362Z"/><circle cx="26.6667" cy="14.9655" r="1"/><circle cx="24.5333" cy="14.9655" r="1"/><circle cx="27.7333" cy="16.569" r="1"/><circle cx="25.6" cy="16.569" r="1"/><circle cx="22.4" cy="14.9655" r="1"/><circle cx="23.4667" cy="16.569" r="1"/><circle cx="20.2667" cy="14.9655" r="1"/><circle cx="21.3333" cy="16.569" r="1"/><circle cx="18.1333" cy="14.9655" r="1"/><circle cx="19.2" cy="16.569" r="1"/></g></symbol>
  <symbol id="hash" focusable="false"><g fill="currentColor" fill-rule="nonzero"><path d="M19.5003 13.8276H19v-.9655C19 10.729 17.2091 9 15 9c-2.2091 0-4 1.7291-4 3.862v.9656h-.5c-.276 0-.5.216-.5.4825v8.2072c0 .2665.2237.4826.4998.4827H19.5c.276 0 .5-.216.5-.4825V14.3103c0-.2665-.2237-.4826-.4997-.4827ZM12 12.862c0-1.5998 1.3431-2.8966 3-2.8966s3 1.2968 3 2.8966v.9655h-1v-.9655c0-1.0665-.8954-1.931-2-1.931s-2 .8645-2 1.931v.9655h-1v-.9655Zm4 0v.9655h-2v-.9655c0-.5333.4477-.9655 1-.9655s1 .4323 1 .9655Zm3 9.1724h-8V14.793h8v7.2414Z"/><path d="M16.3265 16.4546c-.366-.2942-.838-.4559-1.3265-.4546-1.1013-.003-1.9967.8062-2 1.8074-.0014.444.1764.8732.5 1.206v1.532c0 .251.2237.4545.4998.4546H16c.276 0 .5-.2034.5-.4543v-1.5323c.7294-.7502.6517-1.8958-.1735-2.5588Zm-.661 2.0354c-.1054.0862-.1655.209-.1655.3378v1.2631h-1v-1.263c0-.129-.0602-.2517-.1655-.3379-.2124-.1699-.3342-.4146-.3345-.6718 0-.5021.4477-.9091 1-.9091s1 .407 1 .909c-.0003.2573-.1221.502-.3345.6719Z"/><path d="M29.935 5.5a1.9961 1.9961 0 0 0-1.9349-1.4931 1.9974 1.9974 0 0 0-1.9284 1.4996h-2.0705a.4998.4998 0 0 0-.4998.4996v3.6555a18.9788 18.9788 0 0 1-1.4996-.6647v-5.061c1.0692-.276 1.7121-1.3666 1.4361-2.4358C23.1619.4308 22.0713-.2121 21.0021.064c-1.0692.276-1.7122 1.3666-1.4361 2.4359a1.9993 1.9993 0 0 0 1.436 1.436v4.5214a15.5747 15.5747 0 0 1-5.5711-5.2099.5196.5196 0 0 0-.8543 0 14.4765 14.4765 0 0 1-3.5717 3.8795v-3.191c1.0692-.276 1.7121-1.3666 1.436-2.4358C12.165.4308 11.0745-.2121 10.0053.064 8.936.34 8.293 1.4306 8.569 2.4998a1.9993 1.9993 0 0 0 1.436 1.4361v3.9044c-.7963.5269-1.6318.992-2.4992 1.3913V2.0074a.4998.4998 0 0 0-.4996-.4998H3.9359C3.6598.4383 2.5693-.2046 1.5.0714S-.2121 1.4381.064 2.5073C.34 3.5765 1.4306 4.2195 2.4998 3.9434a1.9993 1.9993 0 0 0 1.436-1.4361h2.5704v7.1543a18.6317 18.6317 0 0 1-2.5218.7935.5015.5015 0 0 0-.167.074l-.0926.0635a.5.5 0 0 0-.2177.4124v1.4167c.01 7.5496 4.421 14.4002 11.2898 17.5334a.4995.4995 0 0 0 .414 0c6.8686-3.1332 11.2797-9.9838 11.2898-17.5334V11.005a.5.5 0 0 0-.2177-.4125l-.0928-.0635a.5015.5015 0 0 0-.167-.074c-.5138-.1217-1.0214-.2685-1.522-.4336V6.5062h1.5706c.2779 1.067 1.368 1.7065 2.435 1.4287 1.0666-.278 1.7061-1.368 1.4283-2.435ZM2.0075 3.0071c-.5521 0-.9997-.4476-.9997-.9998 0-.5521.4476-.9997.9997-.9997.5522 0 .9997.4476.9997.9997-.0006.552-.4478.9991-.9997.9998Zm18.4948-.9998c0-.5521.4476-.9997.9997-.9997.5522 0 .9998.4476.9998.9997 0 .5522-.4476.9998-.9998.9998-.5519-.0007-.999-.4479-.9997-.9998Zm-10.9969 0c0-.5521.4476-.9997.9997-.9997.5522 0 .9998.4476.9998.9997 0 .5522-.4476.9998-.9998.9998-.5519-.0007-.999-.4479-.9997-.9998Zm15.9955 9.3489v1.0654c-.0093 7.0754-4.0969 13.5114-10.497 16.5279C8.6036 25.933 4.516 19.497 4.5068 12.4216v-1.0653c4.3205-1.0962 8.252-3.703 10.497-6.9338 2.2449 3.231 6.1764 5.8376 10.497 6.9338Zm2.4993-4.3502c-.5521 0-.9997-.4476-.9997-.9997 0-.5522.4476-.9998.9997-.9998.5522 0 .9997.4476.9997.9998-.0006.5519-.4478.999-.9997.9997Z"/></g></symbol>
  <symbol id="client" focusable="false"><g fill="currentColor" fill-rule="nonzero"><path d="M31.9985 22.6563c-.0003-.0048-.0003-.0095-.0007-.0142a.4726.4726 0 0 0-.0082-.0554c-.0004-.0018-.001-.0036-.0013-.0054a.4667.4667 0 0 0-.0137-.0487c-.0014-.0042-.003-.0084-.0045-.0125a.462.462 0 0 0-.0178-.0421c-.0011-.0024-.0019-.0049-.003-.0073l-2.507-5.0202V.934c0-.508-.4071-.9212-.9075-.9212H3.4651c-.5004 0-.9075.4132-.9075.9212v16.5164l-2.507 5.0202c-.0011.0024-.0018.005-.003.0073a.4873.4873 0 0 0-.0177.042c-.0016.0042-.0032.0084-.0046.0127a.4896.4896 0 0 0-.0136.0488c-.0004.0017-.001.0034-.0013.0051a.4756.4756 0 0 0-.0082.0555c-.0005.0047-.0005.0095-.0007.0142-.0006.0099-.0015.0196-.0015.0297v1.2072c0 .6033.4834 1.0941 1.0777 1.0941h29.8445c.5944 0 1.0778-.4908 1.0778-1.0941v-1.2072c0-.01-.0009-.0198-.0015-.0296ZM3.4952.9647h25.0096v16.1236H3.4952V.9647ZM3.3143 18.04h25.3713L30.768 22.21H20.4692l-.5169-1.9029c-.1052-.3873-.4551-.6579-.851-.6579h-6.2028c-.3958 0-.7458.2706-.851.6579l-.5169 1.9029H1.232L3.3143 18.04Zm16.1824 4.17h-6.9935l.4371-1.609h6.1194l.437 1.609Zm11.5658 1.683a.1415.1415 0 0 1-.1403.1424H1.0778a.1415.1415 0 0 1-.1403-.1424v-.7313h30.125v.7313Z"/><path d="M27.036 9.8195c-.2589 0-.4687.213-.4687.476v4.8258H5.4327v-4.8259c0-.2628-.2098-.4759-.4688-.4759-.2589 0-.4687.213-.4687.476v5.0313c0 .4115.3297.7462.735.7462h21.5396c.4053 0 .735-.3347.735-.7462v-5.0314c0-.2627-.2098-.4759-.4687-.4759ZM26.7697 1.9799H5.2303c-.4054 0-.7351.3347-.7351.7462v5.0314c0 .2629.2098.4759.4687.4759.259 0 .4688-.213.4688-.476V2.9318h21.1346v4.8258c0 .2629.2098.4759.4688.4759.2589 0 .4687-.213.4687-.476V2.7262c0-.4116-.3297-.7462-.735-.7462Z"/></g></symbol>
</svg>